<?xml version="1.0" encoding="utf-8"?>
<!-- Generator: Adobe Illustrator 25.2.0, SVG Export Plug-In . SVG Version: 6.00 Build 0)  -->
<svg version="1.1" id="Layer_1" xmlns="http://www.w3.org/2000/svg" xmlns:xlink="http://www.w3.org/1999/xlink" x="0px" y="0px"
	 viewBox="0 0 1100 270" style="enable-background:new 0 0 1100 270;" xml:space="preserve">
<style type="text/css">
	.st0{fill:#FFFFFF;stroke:#333333;stroke-miterlimit:10;}
	.st1{fill:#001E50;}
	.st2{clip-path:url(#SVGID_2_);}
	.st3{fill:#00D4A0;}
	.st4{clip-path:url(#SVGID_4_);}
	.st5{fill:#A6A6A6;}
</style>
<g>
	<g transform="translate(74.061411, 123.735955)">
		<g>
			<path class="st0" d="M91.9-58.1v10.5H48.7v33.5h35.1v10.5H48.7v44.8h-13v-99.4H91.9z"/>
		</g>
	</g>
</g>
<g>
	<g transform="translate(123.456787, 123.735955)">
		<g>
			<path class="st0" d="M86.3,42.5c-7.3,0-14-1.7-19.9-5c-5.9-3.3-10.6-8.1-14-14.2C49,17.2,47.4,10.1,47.4,2c0-8,1.7-15,5.2-21.2
				C56-25.3,60.8-30,66.8-33.3c6-3.3,12.7-4.9,20.1-4.9c7.4,0,14.1,1.6,20.1,4.9c6,3.3,10.7,8,14.2,14c3.5,6.1,5.2,13.2,5.2,21.3
				s-1.8,15.2-5.4,21.3c-3.6,6.1-8.4,10.9-14.5,14.2C100.5,40.9,93.7,42.5,86.3,42.5z M86.3,31.1c4.7,0,9-1.1,13.1-3.3
				c4.1-2.2,7.4-5.5,9.9-9.8c2.5-4.4,3.8-9.7,3.8-16c0-6.3-1.2-11.6-3.7-16c-2.5-4.4-5.7-7.6-9.7-9.8c-4-2.1-8.3-3.2-13-3.2
				c-4.8,0-9.1,1.1-13,3.2c-3.9,2.1-7.1,5.4-9.5,9.8c-2.4,4.4-3.6,9.7-3.6,16c0,6.4,1.2,11.7,3.5,16.1c2.3,4.4,5.4,7.6,9.3,9.8
				C77.3,30.1,81.6,31.1,86.3,31.1z"/>
		</g>
	</g>
</g>
<g>
	<g transform="translate(187.393329, 123.735955)">
		<g>
			<path class="st0" d="M86.5-24.2c2.3-4.5,5.5-7.9,9.8-10.4c4.2-2.5,9.4-3.7,15.5-3.7v13.4h-3.4c-14.5,0-21.8,7.9-21.8,23.7v42.5
				h-13v-78.1h13V-24.2z"/>
		</g>
	</g>
</g>
<g>
	<g transform="translate(222.782093, 123.735955)">
		<g>
			<path class="st0" d="M156.6-0.8c0,2.5-0.1,5.1-0.4,7.8H93.7c0.5,7.7,3.1,13.7,7.9,18.1c4.8,4.3,10.6,6.5,17.5,6.5
				c5.6,0,10.3-1.3,14-3.9c3.8-2.6,6.4-6.1,7.9-10.5h14c-2.1,7.5-6.3,13.6-12.6,18.3c-6.3,4.7-14.1,7.1-23.4,7.1
				c-7.4,0-14.1-1.7-19.9-5c-5.8-3.3-10.4-8.1-13.8-14.2c-3.3-6.1-5-13.3-5-21.3s1.6-15.2,4.9-21.3c3.2-6.1,7.8-10.8,13.6-14
				c5.8-3.3,12.6-4.9,20.2-4.9c7.4,0,14,1.6,19.7,4.9c5.7,3.2,10.1,7.7,13.2,13.3C155.1-14.3,156.6-7.9,156.6-0.8z M143.2-3.5
				c0-4.9-1.1-9.2-3.3-12.8c-2.2-3.6-5.2-6.3-8.9-8.1c-3.7-1.9-7.9-2.8-12.5-2.8c-6.6,0-12.2,2.1-16.8,6.3c-4.6,4.2-7.2,10-7.9,17.4
				H143.2z"/>
		</g>
	</g>
</g>
<g>
	<g transform="translate(284.580213, 123.735955)">
		<g>
			<path class="st0" d="M101.1,2c0-8.1,1.6-15.1,4.9-21.2c3.2-6,7.7-10.7,13.5-14c5.8-3.3,12.3-5,19.8-5c9.6,0,17.5,2.3,23.7,7
				c6.2,4.7,10.3,11.1,12.3,19.4h-14c-1.3-4.8-3.9-8.5-7.8-11.2c-3.8-2.8-8.6-4.1-14.3-4.1c-7.4,0-13.4,2.5-18,7.6
				c-4.6,5.1-6.8,12.3-6.8,21.6c0,9.4,2.3,16.7,6.8,21.8c4.6,5.1,10.6,7.7,18,7.7c5.7,0,10.4-1.3,14.2-4c3.8-2.7,6.4-6.5,7.8-11.4
				h14c-2.1,8-6.3,14.4-12.5,19.2c-6.3,4.8-14.1,7.2-23.5,7.2c-7.4,0-14-1.7-19.8-5c-5.8-3.3-10.2-8-13.5-14.1
				C102.7,17.3,101.1,10.2,101.1,2z"/>
		</g>
	</g>
</g>
<g>
	<g transform="translate(344.988366, 123.735955)">
		<g>
			<path class="st0" d="M121.2,1.9c0-8,1.6-15,4.9-21c3.2-6,7.7-10.7,13.3-14c5.7-3.3,11.9-5,18.9-5c6.8,0,12.8,1.5,17.8,4.4
				c5,2.9,8.8,6.7,11.3,11.1v-14.3h13.1v78.1h-13.1V26.7c-2.6,4.6-6.4,8.3-11.5,11.3s-11,4.5-17.8,4.5c-6.9,0-13.2-1.7-18.8-5.1
				c-5.6-3.4-10-8.2-13.3-14.4C122.8,16.8,121.2,9.8,121.2,1.9z M187.4,2c0-5.9-1.2-11-3.6-15.4s-5.6-7.7-9.6-10
				c-4-2.3-8.5-3.5-13.3-3.5c-4.8,0-9.3,1.1-13.3,3.4c-4,2.3-7.2,5.6-9.5,10s-3.6,9.5-3.6,15.4c0,6,1.2,11.2,3.6,15.6
				c2.4,4.4,5.6,7.8,9.5,10.1c4,2.3,8.4,3.5,13.3,3.5c4.8,0,9.3-1.2,13.3-3.5c4-2.3,7.2-5.7,9.6-10.1C186.2,13.1,187.4,7.9,187.4,2z
				"/>
		</g>
	</g>
</g>
<g>
	<g transform="translate(412.774067, 123.735955)">
		<g>
			<path class="st0" d="M176.3,42.5c-6,0-11.4-1-16.1-3.1c-4.8-2.1-8.5-4.9-11.3-8.6c-2.8-3.7-4.3-7.9-4.5-12.6h13.4
				c0.4,3.9,2.2,7.1,5.5,9.6c3.3,2.5,7.6,3.7,12.9,3.7c4.9,0,8.8-1.1,11.7-3.3c2.8-2.2,4.3-5,4.3-8.3c0-3.4-1.5-6-4.6-7.6
				s-7.7-3.3-14.1-4.9c-5.8-1.5-10.5-3.1-14.2-4.6c-3.7-1.6-6.8-3.9-9.4-7c-2.6-3.1-3.9-7.2-3.9-12.2c0-4,1.2-7.6,3.6-11
				s5.8-6,10.1-7.9c4.4-1.9,9.4-2.9,15-2.9c8.6,0,15.6,2.2,20.9,6.6c5.3,4.4,8.2,10.4,8.6,18h-13c-0.3-4.1-1.9-7.4-4.9-9.8
				c-3-2.5-7-3.7-12-3.7c-4.7,0-8.4,1-11.1,3c-2.8,2-4.1,4.6-4.1,7.8c0,2.6,0.8,4.7,2.5,6.4c1.7,1.7,3.8,3,6.3,4
				c2.5,1,6,2.1,10.5,3.4c5.6,1.5,10.2,3,13.7,4.5c3.5,1.5,6.5,3.7,9.1,6.6c2.5,2.9,3.8,6.8,3.9,11.5c0,4.3-1.2,8.1-3.6,11.6
				c-2.4,3.4-5.7,6.1-10,8.1C186.9,41.6,181.9,42.5,176.3,42.5z"/>
		</g>
	</g>
</g>
<g>
	<g transform="translate(464.093993, 123.735955)">
		<g>
			<path class="st0" d="M181.6-26.2v46c0,3.8,0.8,6.5,2.4,8.1c1.6,1.6,4.4,2.4,8.4,2.4h9.5v11h-11.7c-7.2,0-12.6-1.7-16.2-5
				c-3.6-3.3-5.4-8.8-5.4-16.4v-46h-10.1v-10.7h10.1v-19.7h13v19.7H202v10.7H181.6z"/>
		</g>
	</g>
</g>
<g>
	<g transform="translate(498.52047, 123.735955)">
		<g>
			<path class="st1" d="M190.2-47.6v33.2h36.2v10.7h-36.2v34.2h40.5v10.7h-53.5v-99.5h53.5v10.7H190.2z"/>
		</g>
	</g>
</g>
<g>
	<g transform="translate(548.87812, 123.735955)">
		<g>
			<path class="st0" d="M189.2,1.9c0-8,1.6-15,4.9-21c3.2-6,7.7-10.7,13.3-14c5.7-3.3,12-5,19-5c6.1,0,11.7,1.4,17,4.2
				c5.2,2.8,9.2,6.5,12,11v-41.4h13.1V41.2h-13.1V26.6c-2.6,4.7-6.4,8.5-11.4,11.5c-5,3-10.9,4.5-17.7,4.5c-6.9,0-13.2-1.7-18.9-5.1
				C201.7,34,197.3,29.2,194,23C190.8,16.8,189.2,9.8,189.2,1.9z M255.3,2c0-5.9-1.2-11-3.6-15.4s-5.6-7.7-9.6-10
				c-4-2.3-8.5-3.5-13.3-3.5c-4.8,0-9.3,1.1-13.3,3.4c-4,2.3-7.2,5.6-9.5,10s-3.6,9.5-3.6,15.4c0,6,1.2,11.2,3.6,15.6
				c2.4,4.4,5.6,7.8,9.5,10.1c4,2.3,8.4,3.5,13.3,3.5c4.8,0,9.3-1.2,13.3-3.5c4-2.3,7.2-5.7,9.6-10.1C254.1,13.1,255.3,7.9,255.3,2z
				"/>
		</g>
	</g>
</g>
<g>
	<g transform="translate(616.663804, 123.735955)">
		<g>
			<path class="st0" d="M248.8-38.2c6.8,0,12.7,1.5,17.8,4.4c5.1,2.9,8.9,6.7,11.3,11.1v-14.3h13.1V43c0,7.1-1.5,13.5-4.6,19
				c-3,5.6-7.4,9.9-13.1,13.1c-5.7,3.1-12.2,4.7-19.8,4.7c-10.3,0-18.8-2.4-25.7-7.3c-6.8-4.8-10.9-11.5-12.1-19.8h12.8
				c1.4,4.8,4.4,8.6,8.8,11.5c4.5,2.9,9.8,4.4,16.1,4.4c7.1,0,13-2.2,17.5-6.7c4.5-4.5,6.8-10.7,6.8-18.8V26.6
				c-2.6,4.6-6.4,8.4-11.4,11.4c-5,3-10.9,4.6-17.7,4.6c-6.9,0-13.2-1.7-18.9-5.1c-5.7-3.4-10.1-8.2-13.3-14.4
				c-3.2-6.2-4.9-13.2-4.9-21.1c0-8,1.6-15,4.9-21c3.2-6,7.7-10.7,13.3-14C235.6-36.5,241.9-38.2,248.8-38.2z M277.9,2
				c0-5.9-1.2-11-3.6-15.4s-5.6-7.7-9.6-10c-4-2.3-8.5-3.5-13.3-3.5c-4.8,0-9.3,1.1-13.3,3.4c-4,2.3-7.2,5.6-9.5,10S225-4,225,1.9
				c0,6,1.2,11.2,3.6,15.6c2.4,4.4,5.6,7.8,9.5,10.1c4,2.3,8.4,3.5,13.3,3.5c4.8,0,9.3-1.2,13.3-3.5c4-2.3,7.2-5.7,9.6-10.1
				C276.7,13.1,277.9,7.9,277.9,2z"/>
		</g>
	</g>
</g>
<g>
	<g transform="translate(684.449488, 123.735955)">
		<g>
			<path class="st0" d="M310.5-0.8c0,2.5-0.1,5.1-0.4,7.8h-62.4c0.5,7.7,3.1,13.7,7.9,18.1c4.8,4.3,10.6,6.5,17.5,6.5
				c5.6,0,10.3-1.3,14-3.9c3.8-2.6,6.4-6.1,7.9-10.5h14c-2.1,7.5-6.3,13.6-12.6,18.3c-6.3,4.7-14.1,7.1-23.4,7.1
				c-7.4,0-14.1-1.7-19.9-5c-5.8-3.3-10.4-8.1-13.8-14.2c-3.3-6.1-5-13.3-5-21.3s1.6-15.2,4.9-21.3c3.2-6.1,7.8-10.8,13.6-14
				c5.8-3.3,12.6-4.9,20.2-4.9c7.4,0,14,1.6,19.7,4.9c5.7,3.2,10.1,7.7,13.2,13.3C308.9-14.3,310.5-7.9,310.5-0.8z M297.1-3.5
				c0-4.9-1.1-9.2-3.3-12.8c-2.2-3.6-5.2-6.3-8.9-8.1c-3.8-1.9-7.9-2.8-12.5-2.8c-6.6,0-12.2,2.1-16.8,6.3c-4.6,4.2-7.2,10-7.9,17.4
				H297.1z"/>
		</g>
	</g>
</g>
<g>
	<defs>
		<rect id="SVGID_1_" x="108.8" y="174.8" width="717.4" height="14.9"/>
	</defs>
	<clipPath id="SVGID_2_">
		<use xlink:href="#SVGID_1_"  style="overflow:visible;"/>
	</clipPath>
	<g class="st2">
		<path class="st3" d="M108.8,174.8h717.4v14.9H108.8V174.8z"/>
	</g>
</g>
<g>
	<defs>
		<rect id="SVGID_3_" x="915.9" y="174.8" width="80.6" height="14.9"/>
	</defs>
	<clipPath id="SVGID_4_">
		<use xlink:href="#SVGID_3_"  style="overflow:visible;"/>
	</clipPath>
	<g class="st4">
		<path class="st3" d="M915.9,174.8h80.6v14.9h-80.6V174.8z"/>
	</g>
</g>
<g>
	<g transform="translate(86.660991, 175.004353)">
		<g>
			<path class="st5" d="M38.9,58.3v-9l-9.4-16h3.6l4.1,7l3.2,5.6l7.3-12.6h3.5l-9.4,16v9H38.9z"/>
		</g>
	</g>
</g>
<g>
	<g transform="translate(108.273081, 175.004353)">
		<g>
			<path class="st5" d="M47.8,58.8c-1.9,0-3.6-0.4-5.1-1.2c-1.5-0.8-2.6-2-3.5-3.5c-0.8-1.5-1.2-3.1-1.2-5c0-1.9,0.4-3.6,1.2-5
				c0.8-1.5,2-2.6,3.5-3.4c1.5-0.8,3.2-1.2,5.1-1.2c1.9,0,3.6,0.4,5.1,1.2c1.5,0.8,2.6,2,3.5,3.4c0.8,1.4,1.2,3.1,1.2,5
				c0,1.9-0.4,3.6-1.2,5c-0.8,1.5-2,2.6-3.5,3.5C51.4,58.4,49.8,58.8,47.8,58.8z M41,49.1c0,1.3,0.3,2.5,0.9,3.6
				c0.6,1,1.4,1.8,2.4,2.4c1,0.6,2.2,0.9,3.5,0.9s2.5-0.3,3.5-0.9c1-0.6,1.8-1.4,2.4-2.4c0.6-1,0.9-2.2,0.9-3.6
				c0-1.4-0.3-2.5-0.9-3.6c-0.6-1-1.4-1.8-2.4-2.4c-1-0.6-2.2-0.9-3.5-0.9s-2.5,0.3-3.5,0.9c-1,0.6-1.8,1.4-2.4,2.4
				C41.3,46.5,41,47.7,41,49.1z"/>
		</g>
	</g>
</g>
<g>
	<g transform="translate(130.099136, 175.004353)">
		<g>
			<path class="st5" d="M54.2,58.8c-2.4,0-4.3-0.8-5.7-2.4c-1.4-1.6-2-3.7-2-6.3V39.8h3v10c0,1.8,0.5,3.3,1.4,4.4
				c0.9,1.1,2.2,1.6,3.8,1.6c1.7,0,3.1-0.6,4.2-1.9c1.1-1.2,1.6-2.9,1.6-4.9v-9.4h3v18.5h-2.5l-0.3-2.7c-0.8,1.1-1.8,1.9-2.9,2.4
				C56.6,58.5,55.4,58.8,54.2,58.8z"/>
		</g>
	</g>
</g>
<g>
	<g transform="translate(151.87169, 175.004353)">
		<g>
			<path class="st5" d="M54,58.3V39.8h2.5l0.4,3.2c0.7-1.1,1.5-1.9,2.5-2.5c1-0.5,2.3-0.8,3.8-0.8h1.7v2.8H63c-1.1,0-2.1,0.2-3,0.7
				c-0.9,0.4-1.6,1.2-2.2,2.2c-0.5,1-0.8,2.4-0.8,4.2v8.6H54z"/>
		</g>
	</g>
</g>
<g>
	<g transform="translate(167.866768, 175.004353)">
	</g>
</g>
<g>
	<g transform="translate(178.833295, 175.004353)">
		<g>
			<path class="st5" d="M63.3,58.3v-25H73c2.4,0,4.3,0.6,5.8,1.8c1.4,1.2,2.2,2.8,2.2,4.8c0,1.2-0.3,2.3-0.9,3.2
				c-0.6,0.9-1.4,1.7-2.4,2.2c1.3,0.5,2.3,1.3,2.9,2.3c0.7,1,1,2.2,1,3.6c0,2.2-0.7,3.9-2.2,5.1c-1.5,1.2-3.4,1.9-6,1.9H63.3z
				 M66.5,55.4h6.9c1.6,0,2.9-0.4,3.7-1.1c0.9-0.8,1.3-1.8,1.3-3.1c0-1.3-0.4-2.4-1.3-3.1C76.2,47.4,75,47,73.4,47h-6.9V55.4z
				 M66.5,44.2h6.5c1.5,0,2.7-0.3,3.5-1c0.8-0.7,1.2-1.7,1.2-2.9c0-1.3-0.4-2.2-1.2-2.9c-0.8-0.7-2-1-3.5-1h-6.5V44.2z"/>
		</g>
	</g>
</g>
<g>
	<g transform="translate(201.114079, 175.004353)">
		<g>
			<path class="st5" d="M77.8,58.8c-2.4,0-4.3-0.8-5.7-2.4c-1.4-1.6-2-3.7-2-6.3V39.8h3v10c0,1.8,0.5,3.3,1.4,4.4
				c0.9,1.1,2.2,1.6,3.8,1.6c1.7,0,3.1-0.6,4.2-1.9c1.1-1.2,1.6-2.9,1.6-4.9v-9.4h3v18.5h-2.5l-0.3-2.7c-0.8,1.1-1.8,1.9-2.9,2.4
				C80.2,58.5,79.1,58.8,77.8,58.8z"/>
		</g>
	</g>
</g>
<g>
	<g transform="translate(222.886633, 175.004353)">
		<g>
			<path class="st5" d="M84.4,58.8c-2.4,0-4.4-0.6-5.8-1.7c-1.5-1.2-2.2-2.7-2.3-4.5h3c0,1.1,0.5,2,1.4,2.6c0.9,0.6,2.2,1,3.8,1
				c1.4,0,2.5-0.2,3.3-0.7c0.8-0.5,1.2-1.1,1.2-2c0-0.8-0.4-1.5-1.3-2c-0.8-0.5-2.2-0.9-4-1.2c-2.4-0.4-4.2-1.1-5.3-2
				c-1.2-0.9-1.7-2.1-1.7-3.5c0-1.7,0.6-3,1.9-3.9c1.3-0.9,3-1.4,5.3-1.4c2.3,0,4.1,0.5,5.5,1.5c1.4,1,2.1,2.4,2.2,4.3h-3
				c-0.1-1-0.6-1.8-1.4-2.3c-0.8-0.5-1.9-0.8-3.3-0.8c-1.3,0-2.4,0.2-3.1,0.7c-0.8,0.5-1.1,1.1-1.1,1.9c0,0.8,0.4,1.4,1.1,1.8
				c0.8,0.4,2.1,0.8,4,1.2c4.7,0.9,7.1,2.9,7.1,5.8c0,1.6-0.7,2.9-2.1,3.9C88.5,58.3,86.7,58.8,84.4,58.8z"/>
		</g>
	</g>
</g>
<g>
	<g transform="translate(241.823949, 175.004353)">
		<g>
			<path class="st5" d="M84,58.3V39.8h3v18.5H84z M83.1,34.4c0-0.7,0.2-1.3,0.6-1.7c0.4-0.4,1-0.7,1.8-0.7c0.7,0,1.3,0.2,1.8,0.7
				c0.4,0.4,0.6,1,0.6,1.7c0,0.7-0.2,1.2-0.6,1.7c-0.4,0.4-1,0.6-1.8,0.6c-0.7,0-1.3-0.2-1.8-0.6C83.3,35.7,83.1,35.1,83.1,34.4z"/>
		</g>
	</g>
</g>
<g>
	<g transform="translate(253.378903, 175.004353)">
		<g>
			<path class="st5" d="M87.9,58.3V39.8h2.5l0.3,2.7c0.8-1.1,1.8-1.9,2.9-2.4c1.2-0.5,2.3-0.8,3.6-0.8c2.5,0,4.4,0.8,5.8,2.4
				c1.4,1.6,2.1,3.7,2.1,6.3v10.3h-3v-10c0-1.9-0.5-3.4-1.4-4.5c-0.9-1.1-2.2-1.6-3.8-1.6c-1.1,0-2.2,0.3-3,0.9
				c-0.9,0.6-1.6,1.3-2.1,2.4c-0.5,1-0.8,2.2-0.8,3.5v9.4H87.9z"/>
		</g>
	</g>
</g>
<g>
	<g transform="translate(275.28519, 175.004353)">
		<g>
			<path class="st5" d="M103.2,58.8c-1.8,0-3.5-0.4-4.9-1.2c-1.4-0.8-2.6-2-3.4-3.4c-0.8-1.5-1.2-3.2-1.2-5.1c0-1.9,0.4-3.6,1.2-5
				c0.8-1.5,1.9-2.6,3.4-3.4c1.4-0.8,3.1-1.2,4.9-1.2c2,0,3.7,0.5,5.1,1.4c1.5,0.9,2.6,2.2,3.3,3.8c0.8,1.6,1.1,3.5,1.1,5.7h-16
				c0.2,1.7,0.9,3.1,2.1,4.2c1.2,1,2.6,1.5,4.4,1.5c1.2,0,2.3-0.3,3.3-0.8c1-0.5,1.8-1.3,2.4-2.3h3.4c-0.7,1.8-1.9,3.2-3.5,4.3
				C107.1,58.3,105.3,58.8,103.2,58.8z M96.8,47.6h13c-0.3-1.7-1.1-3-2.2-4c-1.2-1-2.6-1.5-4.3-1.5c-1.7,0-3.1,0.5-4.3,1.5
				C97.7,44.7,97,46,96.8,47.6z"/>
		</g>
	</g>
</g>
<g>
	<g transform="translate(296.629782, 175.004353)">
		<g>
			<path class="st5" d="M109,58.8c-2.4,0-4.4-0.6-5.8-1.7c-1.5-1.2-2.2-2.7-2.3-4.5h3c0,1.1,0.5,2,1.4,2.6c0.9,0.6,2.2,1,3.8,1
				c1.4,0,2.5-0.2,3.3-0.7c0.8-0.5,1.2-1.1,1.2-2c0-0.8-0.4-1.5-1.3-2c-0.8-0.5-2.2-0.9-4-1.2c-2.4-0.4-4.2-1.1-5.3-2
				c-1.2-0.9-1.7-2.1-1.7-3.5c0-1.7,0.6-3,1.9-3.9c1.3-0.9,3-1.4,5.3-1.4c2.3,0,4.1,0.5,5.5,1.5c1.4,1,2.1,2.4,2.2,4.3h-3
				c-0.1-1-0.6-1.8-1.4-2.3c-0.8-0.5-1.9-0.8-3.3-0.8c-1.3,0-2.4,0.2-3.1,0.7c-0.8,0.5-1.1,1.1-1.1,1.9c0,0.8,0.4,1.4,1.1,1.8
				c0.8,0.4,2.1,0.8,4,1.2c4.7,0.9,7.1,2.9,7.1,5.8c0,1.6-0.7,2.9-2.1,3.9C113.1,58.3,111.3,58.8,109,58.8z"/>
		</g>
	</g>
</g>
<g>
	<g transform="translate(315.567098, 175.004353)">
		<g>
			<path class="st5" d="M115.3,58.8c-2.4,0-4.4-0.6-5.8-1.7c-1.5-1.2-2.2-2.7-2.3-4.5h3c0,1.1,0.5,2,1.4,2.6c0.9,0.6,2.2,1,3.8,1
				c1.4,0,2.5-0.2,3.3-0.7c0.8-0.5,1.2-1.1,1.2-2c0-0.8-0.4-1.5-1.3-2c-0.8-0.5-2.2-0.9-4-1.2c-2.4-0.4-4.2-1.1-5.3-2
				c-1.2-0.9-1.7-2.1-1.7-3.5c0-1.7,0.6-3,1.9-3.9c1.3-0.9,3-1.4,5.3-1.4c2.3,0,4.1,0.5,5.5,1.5c1.4,1,2.1,2.4,2.2,4.3h-3
				c-0.1-1-0.6-1.8-1.4-2.3c-0.8-0.5-1.9-0.8-3.3-0.8c-1.3,0-2.4,0.2-3.1,0.7c-0.8,0.5-1.1,1.1-1.1,1.9c0,0.8,0.4,1.4,1.1,1.8
				c0.8,0.4,2.1,0.8,4,1.2c4.7,0.9,7.1,2.9,7.1,5.8c0,1.6-0.7,2.9-2.1,3.9C119.4,58.3,117.6,58.8,115.3,58.8z"/>
		</g>
	</g>
</g>
<g>
	<g transform="translate(334.504414, 175.004353)">
	</g>
</g>
<g>
	<g transform="translate(345.470941, 175.004353)">
		<g>
			<path class="st5" d="M130,58.8c-1.8,0-3.5-0.3-5.1-1c-1.5-0.6-2.9-1.5-4-2.7c-1.1-1.2-2-2.5-2.7-4.1c-0.6-1.6-0.9-3.3-0.9-5.2
				s0.3-3.6,0.9-5.2c0.6-1.6,1.5-2.9,2.6-4.1c1.2-1.2,2.5-2.1,4-2.7c1.5-0.7,3.2-1,5-1c1.9,0,3.7,0.3,5.3,1c1.6,0.7,3,1.7,4.2,2.9
				c1.2,1.2,2,2.7,2.5,4.3h-3.4c-0.8-1.6-1.9-2.9-3.4-3.8c-1.5-0.9-3.2-1.3-5.1-1.3c-1.8,0-3.5,0.4-4.9,1.2c-1.4,0.8-2.6,2-3.4,3.5
				c-0.8,1.5-1.2,3.2-1.2,5.1c0,1.9,0.4,3.6,1.2,5.1c0.8,1.5,2,2.6,3.4,3.5c1.4,0.8,3.1,1.2,4.9,1.2c1.7,0,3.2-0.3,4.5-1
				c1.3-0.7,2.4-1.6,3.2-2.8c0.8-1.2,1.3-2.6,1.6-4.1h-10.2v-3h13.5c0.1,2.7-0.5,5.2-1.5,7.3c-1.1,2.1-2.5,3.8-4.5,5
				C134.8,58.2,132.6,58.8,130,58.8z"/>
		</g>
	</g>
</g>
<g>
	<g transform="translate(371.870851, 175.004353)">
		<g>
			<path class="st5" d="M135.4,58.8c-1.8,0-3.5-0.4-4.9-1.2c-1.4-0.8-2.6-2-3.4-3.4c-0.8-1.5-1.2-3.2-1.2-5.1c0-1.9,0.4-3.6,1.2-5
				c0.8-1.5,1.9-2.6,3.4-3.4c1.4-0.8,3.1-1.2,4.9-1.2c2,0,3.7,0.5,5.1,1.4c1.5,0.9,2.6,2.2,3.3,3.8c0.8,1.6,1.1,3.5,1.1,5.7h-16
				c0.2,1.7,0.9,3.1,2.1,4.2c1.2,1,2.6,1.5,4.4,1.5c1.2,0,2.3-0.3,3.3-0.8c1-0.5,1.8-1.3,2.4-2.3h3.4c-0.7,1.8-1.9,3.2-3.5,4.3
				C139.3,58.3,137.5,58.8,135.4,58.8z M129,47.6h13c-0.3-1.7-1.1-3-2.2-4c-1.2-1-2.6-1.5-4.3-1.5c-1.7,0-3.1,0.5-4.3,1.5
				C129.9,44.7,129.2,46,129,47.6z"/>
		</g>
	</g>
</g>
<g>
	<g transform="translate(393.215444, 175.004353)">
		<g>
			<path class="st5" d="M134.5,58.3V39.8h2.5l0.3,2.7c0.8-1.1,1.8-1.9,2.9-2.4c1.2-0.5,2.3-0.8,3.6-0.8c2.5,0,4.4,0.8,5.8,2.4
				c1.4,1.6,2.1,3.7,2.1,6.3v10.3h-3v-10c0-1.9-0.5-3.4-1.4-4.5c-0.9-1.1-2.2-1.6-3.8-1.6c-1.1,0-2.2,0.3-3,0.9
				c-0.9,0.6-1.6,1.3-2.1,2.4c-0.5,1-0.8,2.2-0.8,3.5v9.4H134.5z"/>
		</g>
	</g>
</g>
<g>
	<g transform="translate(415.12173, 175.004353)">
		<g>
			<path class="st5" d="M141.8,58.3V39.8h3v18.5H141.8z M140.8,34.4c0-0.7,0.2-1.3,0.6-1.7c0.4-0.4,1-0.7,1.8-0.7
				c0.7,0,1.3,0.2,1.8,0.7c0.4,0.4,0.6,1,0.6,1.7c0,0.7-0.2,1.2-0.6,1.7c-0.4,0.4-1,0.6-1.8,0.6c-0.7,0-1.3-0.2-1.8-0.6
				C141.1,35.7,140.8,35.1,140.8,34.4z"/>
		</g>
	</g>
</g>
<g>
	<g transform="translate(426.676684, 175.004353)">
		<g>
			<path class="st5" d="M153,58.8c-2.4,0-4.3-0.8-5.7-2.4c-1.4-1.6-2-3.7-2-6.3V39.8h3v10c0,1.8,0.5,3.3,1.4,4.4
				c0.9,1.1,2.2,1.6,3.8,1.6c1.7,0,3.1-0.6,4.2-1.9c1.1-1.2,1.6-2.9,1.6-4.9v-9.4h3v18.5h-2.5l-0.3-2.7c-0.8,1.1-1.8,1.9-2.9,2.4
				C155.4,58.5,154.2,58.8,153,58.8z"/>
		</g>
	</g>
</g>
<g>
	<g transform="translate(448.449239, 175.004353)">
		<g>
			<path class="st5" d="M159.6,58.8c-2.4,0-4.4-0.6-5.8-1.7c-1.5-1.2-2.2-2.7-2.3-4.5h3c0,1.1,0.5,2,1.4,2.6c0.9,0.6,2.2,1,3.8,1
				c1.4,0,2.5-0.2,3.3-0.7c0.8-0.5,1.2-1.1,1.2-2c0-0.8-0.4-1.5-1.3-2c-0.8-0.5-2.2-0.9-4-1.2c-2.4-0.4-4.2-1.1-5.3-2
				c-1.2-0.9-1.7-2.1-1.7-3.5c0-1.7,0.6-3,1.9-3.9c1.3-0.9,3-1.4,5.3-1.4c2.3,0,4.1,0.5,5.5,1.5c1.4,1,2.1,2.4,2.2,4.3h-3
				c-0.1-1-0.6-1.8-1.4-2.3c-0.8-0.5-1.9-0.8-3.3-0.8c-1.3,0-2.4,0.2-3.1,0.7c-0.8,0.5-1.1,1.1-1.1,1.9c0,0.8,0.4,1.4,1.1,1.8
				c0.8,0.4,2.1,0.8,4,1.2c4.7,0.9,7.1,2.9,7.1,5.8c0,1.6-0.7,2.9-2.1,3.9C163.7,58.3,161.9,58.8,159.6,58.8z"/>
		</g>
	</g>
</g>
<g>
	<g transform="translate(467.386555, 175.004353)">
		<g>
			<path class="st5" d="M159.3,61.6c0.7-0.2,1.2-0.7,1.5-1.2c0.4-0.6,0.5-1.2,0.5-2c-0.3,0.1-0.6,0.1-0.9,0.1
				c-0.7,0-1.2-0.2-1.7-0.6c-0.4-0.4-0.7-1-0.7-1.7s0.2-1.2,0.7-1.7c0.5-0.4,1.1-0.7,1.8-0.7c0.9,0,1.6,0.3,2.2,1
				c0.6,0.7,0.9,1.6,0.9,2.7c0,1-0.2,1.9-0.6,2.8c-0.4,0.8-0.9,1.5-1.5,2.1c-0.6,0.6-1.4,0.9-2.2,1V61.6z"/>
		</g>
	</g>
</g>
<g>
	<g transform="translate(479.155507, 175.004353)">
	</g>
</g>
<g>
	<g transform="translate(490.122034, 175.004353)">
		<g>
			<path class="st5" d="M178.4,58.8c-2.5,0-4.8-0.5-6.7-1.6c-1.9-1.1-3.5-2.6-4.6-4.6c-1.1-2-1.6-4.2-1.6-6.7c0-2.5,0.5-4.8,1.6-6.7
				c1.1-1.9,2.6-3.5,4.6-4.6c2-1.1,4.2-1.7,6.7-1.7c2.5,0,4.8,0.6,6.7,1.7c1.9,1.1,3.5,2.6,4.6,4.6c1.1,1.9,1.7,4.2,1.7,6.7
				c0,2.5-0.6,4.8-1.7,6.7c-1.1,1.9-2.6,3.5-4.6,4.6C183.2,58.2,181,58.8,178.4,58.8z M168.7,45.9c0,1.9,0.4,3.6,1.2,5.1
				c0.8,1.5,2,2.6,3.4,3.5c1.5,0.8,3.1,1.2,5,1.2c1.9,0,3.6-0.4,5.1-1.2c1.5-0.8,2.6-2,3.4-3.5c0.8-1.5,1.2-3.2,1.2-5.1
				c0-2-0.4-3.7-1.2-5.1c-0.8-1.5-2-2.6-3.4-3.4c-1.4-0.8-3.1-1.2-5.1-1.2c-1.9,0-3.6,0.4-5,1.2c-1.5,0.8-2.6,2-3.4,3.4
				C169.1,42.2,168.7,43.9,168.7,45.9z"/>
		</g>
	</g>
</g>
<g>
	<g transform="translate(516.923174, 175.004353)">
		<g>
			<path class="st5" d="M183.1,58.8c-2.4,0-4.3-0.8-5.7-2.4c-1.4-1.6-2-3.7-2-6.3V39.8h3v10c0,1.8,0.5,3.3,1.4,4.4
				c0.9,1.1,2.2,1.6,3.8,1.6c1.7,0,3.1-0.6,4.2-1.9c1.1-1.2,1.6-2.9,1.6-4.9v-9.4h3v18.5h-2.5l-0.3-2.7c-0.8,1.1-1.8,1.9-2.9,2.4
				C185.5,58.5,184.3,58.8,183.1,58.8z"/>
		</g>
	</g>
</g>
<g>
	<g transform="translate(538.695729, 175.004353)">
		<g>
			<path class="st5" d="M183,58.3V39.8h2.5l0.4,3.2c0.7-1.1,1.5-1.9,2.5-2.5c1-0.5,2.3-0.8,3.8-0.8h1.7v2.8H192
				c-1.1,0-2.1,0.2-3,0.7c-0.9,0.4-1.6,1.2-2.2,2.2c-0.5,1-0.8,2.4-0.8,4.2v8.6H183z"/>
		</g>
	</g>
</g>
<g>
	<g transform="translate(554.690807, 175.004353)">
	</g>
</g>
<g>
	<g transform="translate(565.657334, 175.004353)">
		<g>
			<path class="st5" d="M192.3,58.3v-25h8.6c2.6,0,4.8,0.5,6.7,1.6c1.9,1.1,3.4,2.5,4.5,4.4c1.1,1.9,1.6,4,1.6,6.5
				c0,2.4-0.5,4.6-1.6,6.5c-1.1,1.9-2.6,3.3-4.5,4.4c-1.9,1.1-4.1,1.6-6.7,1.6H192.3z M195.4,55.3h5.5c1.9,0,3.6-0.4,5-1.2
				c1.4-0.8,2.6-1.9,3.4-3.3c0.8-1.4,1.2-3.1,1.2-5c0-1.9-0.4-3.6-1.2-5c-0.8-1.4-2-2.5-3.4-3.3c-1.4-0.8-3.1-1.2-5.1-1.2h-5.4V55.3
				z"/>
		</g>
	</g>
</g>
<g>
	<g transform="translate(590.345394, 175.004353)">
		<g>
			<path class="st5" d="M206.2,58.6c-2.2,0-4-0.5-5.2-1.5c-1.2-1-1.9-2.4-1.9-4.1c0-1.7,0.6-3,1.8-4c1.2-1,2.7-1.5,4.6-1.5h7.6v-0.7
				c0-1.4-0.5-2.6-1.4-3.4c-0.9-0.8-2.1-1.2-3.7-1.2c-1.2,0-2.2,0.3-3.1,0.8c-0.9,0.5-1.5,1.2-1.8,2.1h-3c0.4-1.8,1.3-3.2,2.7-4.2
				c1.4-1,3.1-1.5,5.1-1.5c1.6,0,3,0.3,4.2,0.9c1.2,0.6,2.2,1.5,2.8,2.5c0.7,1.1,1,2.3,1,3.8v11.8h-2.5l-0.3-2.6
				C211.6,57.7,209.2,58.6,206.2,58.6z M202.1,52.9c0,0.9,0.4,1.6,1.1,2.2c0.8,0.5,1.8,0.8,3.1,0.8c1.3,0,2.4-0.2,3.4-0.8
				s1.8-1.2,2.4-2.1c0.6-0.9,0.9-1.9,0.9-3h-7.5c-1,0-1.8,0.3-2.5,0.8C202.4,51.4,202.1,52.1,202.1,52.9z"/>
		</g>
	</g>
</g>
<g>
	<g transform="translate(611.262024, 175.004353)">
		<g>
			<path class="st5" d="M215.1,58.3c-2.1,0-3.6-0.6-4.8-1.8s-1.7-2.8-1.7-4.9v-9.1h-3.9v-2.8h1.9c0.9,0,1.5-0.1,1.8-0.4
				c0.3-0.3,0.5-0.9,0.6-1.7l0.3-2.5h2.3v4.6h6v2.8h-6v9c0,2.6,1.2,3.9,3.6,3.9h2.6v2.9H215.1z"/>
		</g>
	</g>
</g>
<g>
	<g transform="translate(627.471066, 175.004353)">
		<g>
			<path class="st5" d="M218.6,58.6c-2.2,0-4-0.5-5.2-1.5c-1.2-1-1.9-2.4-1.9-4.1c0-1.7,0.6-3,1.8-4c1.2-1,2.7-1.5,4.6-1.5h7.6v-0.7
				c0-1.4-0.5-2.6-1.4-3.4c-0.9-0.8-2.1-1.2-3.7-1.2c-1.2,0-2.2,0.3-3.1,0.8c-0.9,0.5-1.5,1.2-1.8,2.1h-3c0.4-1.8,1.3-3.2,2.7-4.2
				c1.4-1,3.1-1.5,5.1-1.5c1.6,0,3,0.3,4.2,0.9c1.2,0.6,2.2,1.5,2.8,2.5c0.7,1.1,1,2.3,1,3.8v11.8H226l-0.3-2.6
				C224,57.7,221.6,58.6,218.6,58.6z M214.5,52.9c0,0.9,0.4,1.6,1.1,2.2c0.8,0.5,1.8,0.8,3.1,0.8c1.3,0,2.4-0.2,3.4-0.8
				s1.8-1.2,2.4-2.1c0.6-0.9,0.9-1.9,0.9-3H218c-1,0-1.8,0.3-2.5,0.8C214.8,51.4,214.5,52.1,214.5,52.9z"/>
		</g>
	</g>
</g>
<g>
	<g transform="translate(648.387696, 175.004353)">
	</g>
</g>
<g>
	<g transform="translate(659.354223, 175.004353)">
		<g>
			<path class="st5" d="M223.5,58.3v-25h9.7c2.4,0,4.3,0.6,5.8,1.8c1.4,1.2,2.2,2.8,2.2,4.8c0,1.2-0.3,2.3-0.9,3.2
				c-0.6,0.9-1.4,1.7-2.4,2.2c1.3,0.5,2.3,1.3,2.9,2.3c0.7,1,1,2.2,1,3.6c0,2.2-0.7,3.9-2.2,5.1c-1.5,1.2-3.4,1.9-6,1.9H223.5z
				 M226.6,55.4h6.9c1.6,0,2.9-0.4,3.7-1.1c0.9-0.8,1.3-1.8,1.3-3.1c0-1.3-0.4-2.4-1.3-3.1c-0.9-0.7-2.1-1.1-3.7-1.1h-6.9V55.4z
				 M226.6,44.2h6.5c1.5,0,2.7-0.3,3.5-1c0.8-0.7,1.2-1.7,1.2-2.9c0-1.3-0.4-2.2-1.2-2.9c-0.8-0.7-2-1-3.5-1h-6.5V44.2z"/>
		</g>
	</g>
</g>
<g>
	<g transform="translate(681.635006, 175.004353)">
		<g>
			<path class="st5" d="M230.6,58.3V39.8h2.5l0.4,3.2c0.7-1.1,1.5-1.9,2.5-2.5c1-0.5,2.3-0.8,3.8-0.8h1.7v2.8h-1.8
				c-1.1,0-2.1,0.2-3,0.7c-0.9,0.4-1.6,1.2-2.2,2.2c-0.5,1-0.8,2.4-0.8,4.2v8.6H230.6z"/>
		</g>
	</g>
</g>
<g>
	<g transform="translate(697.630118, 175.004353)">
		<g>
			<path class="st5" d="M242,58.6c-2.2,0-4-0.5-5.2-1.5c-1.2-1-1.9-2.4-1.9-4.1c0-1.7,0.6-3,1.8-4c1.2-1,2.7-1.5,4.6-1.5h7.6v-0.7
				c0-1.4-0.5-2.6-1.4-3.4c-0.9-0.8-2.1-1.2-3.7-1.2c-1.2,0-2.2,0.3-3.1,0.8c-0.9,0.5-1.5,1.2-1.8,2.1h-3c0.4-1.8,1.3-3.2,2.7-4.2
				c1.4-1,3.1-1.5,5.1-1.5c1.6,0,3,0.3,4.2,0.9c1.2,0.6,2.2,1.5,2.8,2.5c0.7,1.1,1,2.3,1,3.8v11.8h-2.5l-0.3-2.6
				C247.3,57.7,245,58.6,242,58.6z M237.9,52.9c0,0.9,0.4,1.6,1.1,2.2c0.8,0.5,1.8,0.8,3.1,0.8c1.3,0,2.4-0.2,3.4-0.8
				s1.8-1.2,2.4-2.1c0.6-0.9,0.9-1.9,0.9-3h-7.5c-1,0-1.8,0.3-2.5,0.8C238.2,51.4,237.9,52.1,237.9,52.9z"/>
		</g>
	</g>
</g>
<g>
	<g transform="translate(718.546714, 175.004353)">
		<g>
			<path class="st5" d="M242.9,58.3V39.8h3v18.5H242.9z M242,34.4c0-0.7,0.2-1.3,0.6-1.7c0.4-0.4,1-0.7,1.8-0.7
				c0.7,0,1.3,0.2,1.8,0.7c0.4,0.4,0.6,1,0.6,1.7c0,0.7-0.2,1.2-0.6,1.7c-0.4,0.4-1,0.6-1.8,0.6c-0.7,0-1.3-0.2-1.8-0.6
				C242.2,35.7,242,35.1,242,34.4z"/>
		</g>
	</g>
</g>
<g>
	<g transform="translate(730.101668, 175.004353)">
		<g>
			<path class="st5" d="M246.8,58.3V39.8h2.5l0.3,2.7c0.8-1.1,1.8-1.9,2.9-2.4c1.2-0.5,2.3-0.8,3.6-0.8c2.5,0,4.4,0.8,5.8,2.4
				c1.4,1.6,2.1,3.7,2.1,6.3v10.3h-3v-10c0-1.9-0.5-3.4-1.4-4.5c-0.9-1.1-2.2-1.6-3.8-1.6c-1.1,0-2.2,0.3-3,0.9
				c-0.9,0.6-1.6,1.3-2.1,2.4c-0.5,1-0.8,2.2-0.8,3.5v9.4H246.8z"/>
		</g>
	</g>
</g>
<g>
	<g transform="translate(501.159471, 121.507)">
		<g>
			<path class="st3" d="M191.1-48.3v33.2h36.2v10.7h-36.2v34.2h40.5v10.7h-53.5V-59h53.5v10.7H191.1z"/>
		</g>
	</g>
</g>
</svg>
